<mxfile host="app.diagrams.net" modified="2023-08-12T14:17:53.963Z" agent="Mozilla/5.0 (Windows NT 10.0; Win64; x64) AppleWebKit/537.36 (KHTML, like Gecko) Chrome/115.0.0.0 Safari/537.36" etag="8F3dOYQE117kqTZQ100f" version="21.6.7" type="github">
  <diagram id="C5RBs43oDa-KdzZeNtuy" name="Page-1">
    <mxGraphModel dx="1932" dy="1773" grid="1" gridSize="10" guides="1" tooltips="1" connect="1" arrows="1" fold="1" page="1" pageScale="1" pageWidth="827" pageHeight="1169" math="0" shadow="0">
      <root>
        <mxCell id="WIyWlLk6GJQsqaUBKTNV-0" />
        <mxCell id="WIyWlLk6GJQsqaUBKTNV-1" parent="WIyWlLk6GJQsqaUBKTNV-0" />
        <mxCell id="F4Uh7PT9KSqVNdmCy0rb-5" value="User" style="swimlane;fontStyle=1;align=center;verticalAlign=top;childLayout=stackLayout;horizontal=1;startSize=26;horizontalStack=0;resizeParent=1;resizeParentMax=0;resizeLast=0;collapsible=1;marginBottom=0;whiteSpace=wrap;html=1;" parent="WIyWlLk6GJQsqaUBKTNV-1" vertex="1">
          <mxGeometry x="290" y="250" width="160" height="192" as="geometry" />
        </mxCell>
        <mxCell id="F4Uh7PT9KSqVNdmCy0rb-7" value="" style="line;strokeWidth=1;fillColor=none;align=left;verticalAlign=middle;spacingTop=-1;spacingLeft=3;spacingRight=3;rotatable=0;labelPosition=right;points=[];portConstraint=eastwest;strokeColor=inherit;" parent="F4Uh7PT9KSqVNdmCy0rb-5" vertex="1">
          <mxGeometry y="26" width="160" height="8" as="geometry" />
        </mxCell>
        <mxCell id="F4Uh7PT9KSqVNdmCy0rb-6" value="- username: string&lt;br&gt;- password: string" style="text;strokeColor=none;fillColor=none;align=left;verticalAlign=top;spacingLeft=4;spacingRight=4;overflow=hidden;rotatable=0;points=[[0,0.5],[1,0.5]];portConstraint=eastwest;whiteSpace=wrap;html=1;" parent="F4Uh7PT9KSqVNdmCy0rb-5" vertex="1">
          <mxGeometry y="34" width="160" height="46" as="geometry" />
        </mxCell>
        <mxCell id="F4Uh7PT9KSqVNdmCy0rb-8" value="+ User()&lt;br&gt;+ User(string,string)&lt;br&gt;&lt;span style=&quot;background-color: initial;&quot;&gt;+ setUsername(string)&lt;/span&gt;&lt;br&gt;&lt;div&gt;+ getUsername(): string&lt;span style=&quot;&quot;&gt;&lt;/span&gt;&lt;/div&gt;&lt;div&gt;&lt;span style=&quot;background-color: initial;&quot;&gt;+ setPassword(string)&lt;/span&gt;&lt;br&gt;&lt;/div&gt;&lt;div&gt;&lt;span style=&quot;&quot;&gt;&lt;span style=&quot;&quot;&gt;&lt;span style=&quot;white-space: pre;&quot;&gt;+ &lt;/span&gt;&lt;/span&gt;getPassword():string&lt;/span&gt;&lt;/div&gt;&lt;div&gt;&lt;span style=&quot;white-space: pre;&quot;&gt;+ &lt;/span&gt;print();&lt;/div&gt;" style="text;strokeColor=none;fillColor=none;align=left;verticalAlign=top;spacingLeft=4;spacingRight=4;overflow=hidden;rotatable=0;points=[[0,0.5],[1,0.5]];portConstraint=eastwest;whiteSpace=wrap;html=1;" parent="F4Uh7PT9KSqVNdmCy0rb-5" vertex="1">
          <mxGeometry y="80" width="160" height="112" as="geometry" />
        </mxCell>
        <mxCell id="Uw5zCoVIwiCZQKNPxRtt-34" style="edgeStyle=orthogonalEdgeStyle;rounded=0;orthogonalLoop=1;jettySize=auto;html=1;" parent="WIyWlLk6GJQsqaUBKTNV-1" source="F4Uh7PT9KSqVNdmCy0rb-9" target="Uw5zCoVIwiCZQKNPxRtt-16" edge="1">
          <mxGeometry relative="1" as="geometry" />
        </mxCell>
        <mxCell id="F4Uh7PT9KSqVNdmCy0rb-9" value="&lt;i&gt;Customer&lt;/i&gt;" style="swimlane;fontStyle=1;align=center;verticalAlign=top;childLayout=stackLayout;horizontal=1;startSize=26;horizontalStack=0;resizeParent=1;resizeParentMax=0;resizeLast=0;collapsible=1;marginBottom=0;whiteSpace=wrap;html=1;" parent="WIyWlLk6GJQsqaUBKTNV-1" vertex="1">
          <mxGeometry x="90" y="542" width="250" height="230" as="geometry" />
        </mxCell>
        <mxCell id="F4Uh7PT9KSqVNdmCy0rb-10" value="&amp;nbsp;- points : int&lt;br&gt;" style="text;strokeColor=none;fillColor=none;align=left;verticalAlign=top;spacingLeft=4;spacingRight=4;overflow=hidden;rotatable=0;points=[[0,0.5],[1,0.5]];portConstraint=eastwest;whiteSpace=wrap;html=1;" parent="F4Uh7PT9KSqVNdmCy0rb-9" vertex="1">
          <mxGeometry y="26" width="250" height="26" as="geometry" />
        </mxCell>
        <mxCell id="XT_3fEKyRopPESNf88ZJ-5" value="&amp;nbsp;- rank : string" style="text;strokeColor=none;fillColor=none;align=left;verticalAlign=top;spacingLeft=4;spacingRight=4;overflow=hidden;rotatable=0;points=[[0,0.5],[1,0.5]];portConstraint=eastwest;whiteSpace=wrap;html=1;" vertex="1" parent="F4Uh7PT9KSqVNdmCy0rb-9">
          <mxGeometry y="52" width="250" height="26" as="geometry" />
        </mxCell>
        <mxCell id="F4Uh7PT9KSqVNdmCy0rb-11" value="" style="line;strokeWidth=1;fillColor=none;align=left;verticalAlign=middle;spacingTop=-1;spacingLeft=3;spacingRight=3;rotatable=0;labelPosition=right;points=[];portConstraint=eastwest;strokeColor=inherit;" parent="F4Uh7PT9KSqVNdmCy0rb-9" vertex="1">
          <mxGeometry y="78" width="250" height="8" as="geometry" />
        </mxCell>
        <mxCell id="F4Uh7PT9KSqVNdmCy0rb-12" value="+ Customer()&lt;br style=&quot;border-color: var(--border-color);&quot;&gt;+ Customer(string,string)&lt;br&gt;&lt;div&gt;+ getPoints() : int&lt;br&gt;&lt;span style=&quot;background-color: initial;&quot;&gt;&lt;span style=&quot;white-space: pre;&quot;&gt;+&amp;nbsp;&lt;/span&gt;&lt;/span&gt;&lt;span style=&quot;background-color: initial;&quot;&gt;getRank(); : string&lt;/span&gt;&lt;/div&gt;&lt;div&gt;&lt;span style=&quot;&quot;&gt;&lt;span style=&quot;&quot;&gt;&lt;span style=&quot;white-space: pre;&quot;&gt;+ &lt;/span&gt;&lt;/span&gt;DisplayInfo();&lt;/span&gt;&lt;/div&gt;&lt;div&gt;&lt;span style=&quot;&quot;&gt;&lt;span style=&quot;&quot;&gt;&lt;span style=&quot;white-space: pre;&quot;&gt;+ &lt;/span&gt;&lt;/span&gt;UpdateRank();&lt;/span&gt;&lt;/div&gt;&lt;div&gt;&lt;span style=&quot;&quot;&gt;&lt;span style=&quot;&quot;&gt;&lt;span style=&quot;white-space: pre;&quot;&gt;+ &lt;/span&gt;&lt;/span&gt;AddPoints(double)&lt;/span&gt;&lt;/div&gt;&lt;div&gt;&lt;span style=&quot;&quot;&gt;+ UsePoints(double) : double&lt;/span&gt;&lt;/div&gt;" style="text;strokeColor=none;fillColor=none;align=left;verticalAlign=top;spacingLeft=4;spacingRight=4;overflow=hidden;rotatable=0;points=[[0,0.5],[1,0.5]];portConstraint=eastwest;whiteSpace=wrap;html=1;" parent="F4Uh7PT9KSqVNdmCy0rb-9" vertex="1">
          <mxGeometry y="86" width="250" height="144" as="geometry" />
        </mxCell>
        <mxCell id="F4Uh7PT9KSqVNdmCy0rb-15" value="&lt;i&gt;Admin&lt;/i&gt;" style="swimlane;fontStyle=1;align=center;verticalAlign=top;childLayout=stackLayout;horizontal=1;startSize=26;horizontalStack=0;resizeParent=1;resizeParentMax=0;resizeLast=0;collapsible=1;marginBottom=0;whiteSpace=wrap;html=1;" parent="WIyWlLk6GJQsqaUBKTNV-1" vertex="1">
          <mxGeometry x="470" y="542" width="160" height="110" as="geometry" />
        </mxCell>
        <mxCell id="F4Uh7PT9KSqVNdmCy0rb-16" value="&lt;br&gt;" style="text;strokeColor=none;fillColor=none;align=left;verticalAlign=top;spacingLeft=4;spacingRight=4;overflow=hidden;rotatable=0;points=[[0,0.5],[1,0.5]];portConstraint=eastwest;whiteSpace=wrap;html=1;" parent="F4Uh7PT9KSqVNdmCy0rb-15" vertex="1">
          <mxGeometry y="26" width="160" height="26" as="geometry" />
        </mxCell>
        <mxCell id="F4Uh7PT9KSqVNdmCy0rb-17" value="" style="line;strokeWidth=1;fillColor=none;align=left;verticalAlign=middle;spacingTop=-1;spacingLeft=3;spacingRight=3;rotatable=0;labelPosition=right;points=[];portConstraint=eastwest;strokeColor=inherit;" parent="F4Uh7PT9KSqVNdmCy0rb-15" vertex="1">
          <mxGeometry y="52" width="160" height="8" as="geometry" />
        </mxCell>
        <mxCell id="F4Uh7PT9KSqVNdmCy0rb-18" value="+ Admin()&lt;br style=&quot;border-color: var(--border-color);&quot;&gt;+ Admin(string,string)" style="text;strokeColor=none;fillColor=none;align=left;verticalAlign=top;spacingLeft=4;spacingRight=4;overflow=hidden;rotatable=0;points=[[0,0.5],[1,0.5]];portConstraint=eastwest;whiteSpace=wrap;html=1;" parent="F4Uh7PT9KSqVNdmCy0rb-15" vertex="1">
          <mxGeometry y="60" width="160" height="50" as="geometry" />
        </mxCell>
        <mxCell id="F4Uh7PT9KSqVNdmCy0rb-22" value="&lt;i&gt;adminList&lt;/i&gt;" style="swimlane;fontStyle=1;align=center;verticalAlign=top;childLayout=stackLayout;horizontal=1;startSize=26;horizontalStack=0;resizeParent=1;resizeParentMax=0;resizeLast=0;collapsible=1;marginBottom=0;whiteSpace=wrap;html=1;" parent="WIyWlLk6GJQsqaUBKTNV-1" vertex="1">
          <mxGeometry x="480" y="-90" width="290" height="276" as="geometry" />
        </mxCell>
        <mxCell id="F4Uh7PT9KSqVNdmCy0rb-24" value="- admin: AdminNode*[MAX_SIZE]&lt;br&gt;- adminSize : int" style="text;strokeColor=none;fillColor=none;align=left;verticalAlign=top;spacingLeft=4;spacingRight=4;overflow=hidden;rotatable=0;points=[[0,0.5],[1,0.5]];portConstraint=eastwest;whiteSpace=wrap;html=1;" parent="F4Uh7PT9KSqVNdmCy0rb-22" vertex="1">
          <mxGeometry y="26" width="290" height="46" as="geometry" />
        </mxCell>
        <mxCell id="F4Uh7PT9KSqVNdmCy0rb-23" value="" style="line;strokeWidth=1;fillColor=none;align=left;verticalAlign=middle;spacingTop=-1;spacingLeft=3;spacingRight=3;rotatable=0;labelPosition=right;points=[];portConstraint=eastwest;strokeColor=inherit;" parent="F4Uh7PT9KSqVNdmCy0rb-22" vertex="1">
          <mxGeometry y="72" width="290" height="24" as="geometry" />
        </mxCell>
        <mxCell id="F4Uh7PT9KSqVNdmCy0rb-25" value="&lt;div&gt;+ adminList();&lt;/div&gt;&lt;div&gt;&lt;span style=&quot;background-color: initial;&quot;&gt;+ ~adminList();&lt;/span&gt;&lt;/div&gt;&lt;div&gt;&lt;span style=&quot;background-color: initial;&quot;&gt;+ hash(int ): int&lt;/span&gt;&lt;/div&gt;&lt;div&gt;&lt;span style=&quot;background-color: initial;&quot;&gt;+ add(Admin ): bool&lt;/span&gt;&lt;/div&gt;&lt;div&gt;&lt;span style=&quot;background-color: initial;&quot;&gt;&lt;span style=&quot;white-space: pre;&quot;&gt;+ &lt;/span&gt;remove(Admin )&lt;/span&gt;&lt;/div&gt;&lt;div&gt;&lt;span style=&quot;background-color: initial;&quot;&gt;+&amp;nbsp;&lt;/span&gt;&lt;span style=&quot;background-color: initial;&quot;&gt;get(string): Admin&lt;/span&gt;&lt;/div&gt;&lt;div&gt;&lt;span style=&quot;background-color: initial;&quot;&gt;+ isEmpty(): bool&lt;/span&gt;&lt;/div&gt;&lt;div&gt;&lt;span style=&quot;background-color: initial;&quot;&gt;+ getLength(): bool&lt;/span&gt;&lt;/div&gt;&lt;div&gt;&lt;span style=&quot;background-color: initial;&quot;&gt;+ print()&lt;/span&gt;&lt;/div&gt;&lt;div&gt;&lt;span style=&quot;background-color: initial;&quot;&gt;+ Login(string, string): bool&lt;/span&gt;&lt;/div&gt;" style="text;strokeColor=none;fillColor=none;align=left;verticalAlign=top;spacingLeft=4;spacingRight=4;overflow=hidden;rotatable=0;points=[[0,0.5],[1,0.5]];portConstraint=eastwest;whiteSpace=wrap;html=1;" parent="F4Uh7PT9KSqVNdmCy0rb-22" vertex="1">
          <mxGeometry y="96" width="290" height="180" as="geometry" />
        </mxCell>
        <mxCell id="F4Uh7PT9KSqVNdmCy0rb-27" value="&lt;i&gt;customerList&lt;/i&gt;" style="swimlane;fontStyle=1;align=center;verticalAlign=top;childLayout=stackLayout;horizontal=1;startSize=26;horizontalStack=0;resizeParent=1;resizeParentMax=0;resizeLast=0;collapsible=1;marginBottom=0;whiteSpace=wrap;html=1;" parent="WIyWlLk6GJQsqaUBKTNV-1" vertex="1">
          <mxGeometry x="-10" y="-90" width="290" height="276" as="geometry" />
        </mxCell>
        <mxCell id="F4Uh7PT9KSqVNdmCy0rb-28" value="- customer: CustomerNode*[MAX_SIZE]&lt;br&gt;- customefSize : int&lt;span style=&quot;white-space: pre;&quot;&gt;&#x9;&lt;/span&gt;" style="text;strokeColor=none;fillColor=none;align=left;verticalAlign=top;spacingLeft=4;spacingRight=4;overflow=hidden;rotatable=0;points=[[0,0.5],[1,0.5]];portConstraint=eastwest;whiteSpace=wrap;html=1;" parent="F4Uh7PT9KSqVNdmCy0rb-27" vertex="1">
          <mxGeometry y="26" width="290" height="46" as="geometry" />
        </mxCell>
        <mxCell id="F4Uh7PT9KSqVNdmCy0rb-29" value="" style="line;strokeWidth=1;fillColor=none;align=left;verticalAlign=middle;spacingTop=-1;spacingLeft=3;spacingRight=3;rotatable=0;labelPosition=right;points=[];portConstraint=eastwest;strokeColor=inherit;" parent="F4Uh7PT9KSqVNdmCy0rb-27" vertex="1">
          <mxGeometry y="72" width="290" height="24" as="geometry" />
        </mxCell>
        <mxCell id="F4Uh7PT9KSqVNdmCy0rb-30" value="&lt;div&gt;+ customerList();&lt;/div&gt;&lt;div&gt;&lt;span style=&quot;background-color: initial;&quot;&gt;+ ~customerList();&lt;/span&gt;&lt;/div&gt;&lt;div&gt;&lt;span style=&quot;background-color: initial;&quot;&gt;+ hash(int ): int&lt;/span&gt;&lt;/div&gt;&lt;div&gt;&lt;span style=&quot;background-color: initial;&quot;&gt;+ add(Customer): bool&lt;/span&gt;&lt;/div&gt;&lt;div&gt;&lt;span style=&quot;background-color: initial;&quot;&gt;&lt;span style=&quot;white-space: pre;&quot;&gt;+ &lt;/span&gt;remove(Customer )&lt;/span&gt;&lt;/div&gt;&lt;div&gt;&lt;span style=&quot;background-color: initial;&quot;&gt;+&amp;nbsp;&lt;/span&gt;&lt;span style=&quot;background-color: initial;&quot;&gt;get(string): Customer&lt;/span&gt;&lt;/div&gt;&lt;div&gt;&lt;span style=&quot;background-color: initial;&quot;&gt;+ isEmpty(): bool&lt;/span&gt;&lt;/div&gt;&lt;div&gt;&lt;span style=&quot;background-color: initial;&quot;&gt;+ getLength(): bool&lt;/span&gt;&lt;/div&gt;&lt;div&gt;&lt;span style=&quot;background-color: initial;&quot;&gt;+ print()&lt;/span&gt;&lt;/div&gt;&lt;div&gt;&lt;span style=&quot;background-color: initial;&quot;&gt;+ Login(string, string): bool&lt;/span&gt;&lt;/div&gt;" style="text;strokeColor=none;fillColor=none;align=left;verticalAlign=top;spacingLeft=4;spacingRight=4;overflow=hidden;rotatable=0;points=[[0,0.5],[1,0.5]];portConstraint=eastwest;whiteSpace=wrap;html=1;" parent="F4Uh7PT9KSqVNdmCy0rb-27" vertex="1">
          <mxGeometry y="96" width="290" height="180" as="geometry" />
        </mxCell>
        <mxCell id="F4Uh7PT9KSqVNdmCy0rb-33" value="" style="endArrow=none;html=1;rounded=0;exitX=0.25;exitY=0;exitDx=0;exitDy=0;" parent="WIyWlLk6GJQsqaUBKTNV-1" source="F4Uh7PT9KSqVNdmCy0rb-9" target="F4Uh7PT9KSqVNdmCy0rb-30" edge="1">
          <mxGeometry width="50" height="50" relative="1" as="geometry">
            <mxPoint x="310" y="440" as="sourcePoint" />
            <mxPoint x="360" y="390" as="targetPoint" />
          </mxGeometry>
        </mxCell>
        <mxCell id="F4Uh7PT9KSqVNdmCy0rb-34" value="" style="endArrow=none;html=1;rounded=0;exitX=0.75;exitY=0;exitDx=0;exitDy=0;entryX=0.502;entryY=1.003;entryDx=0;entryDy=0;entryPerimeter=0;" parent="WIyWlLk6GJQsqaUBKTNV-1" source="F4Uh7PT9KSqVNdmCy0rb-15" target="F4Uh7PT9KSqVNdmCy0rb-25" edge="1">
          <mxGeometry width="50" height="50" relative="1" as="geometry">
            <mxPoint x="310" y="440" as="sourcePoint" />
            <mxPoint x="360" y="390" as="targetPoint" />
          </mxGeometry>
        </mxCell>
        <mxCell id="NnawjAGhsoZth6e_I13s-0" style="edgeStyle=orthogonalEdgeStyle;rounded=0;orthogonalLoop=1;jettySize=auto;html=1;entryX=0.5;entryY=0;entryDx=0;entryDy=0;" parent="WIyWlLk6GJQsqaUBKTNV-1" source="717un5NZY9DqzgN_jYeW-10" target="Uw5zCoVIwiCZQKNPxRtt-15" edge="1">
          <mxGeometry relative="1" as="geometry" />
        </mxCell>
        <mxCell id="717un5NZY9DqzgN_jYeW-10" value="&lt;i&gt;OrderItems&lt;/i&gt;" style="swimlane;fontStyle=1;align=center;verticalAlign=top;childLayout=stackLayout;horizontal=1;startSize=26;horizontalStack=0;resizeParent=1;resizeParentMax=0;resizeLast=0;collapsible=1;marginBottom=0;whiteSpace=wrap;html=1;" parent="WIyWlLk6GJQsqaUBKTNV-1" vertex="1">
          <mxGeometry x="-200" y="240" width="180" height="130" as="geometry" />
        </mxCell>
        <mxCell id="717un5NZY9DqzgN_jYeW-11" value="- firstNode : OrderItem*" style="text;strokeColor=none;fillColor=none;align=left;verticalAlign=top;spacingLeft=4;spacingRight=4;overflow=hidden;rotatable=0;points=[[0,0.5],[1,0.5]];portConstraint=eastwest;whiteSpace=wrap;html=1;" parent="717un5NZY9DqzgN_jYeW-10" vertex="1">
          <mxGeometry y="26" width="180" height="26" as="geometry" />
        </mxCell>
        <mxCell id="717un5NZY9DqzgN_jYeW-12" value="" style="line;strokeWidth=1;fillColor=none;align=left;verticalAlign=middle;spacingTop=-1;spacingLeft=3;spacingRight=3;rotatable=0;labelPosition=right;points=[];portConstraint=eastwest;strokeColor=inherit;" parent="717un5NZY9DqzgN_jYeW-10" vertex="1">
          <mxGeometry y="52" width="180" height="8" as="geometry" />
        </mxCell>
        <mxCell id="717un5NZY9DqzgN_jYeW-13" value="+ OrderItem()&lt;br&gt;+ AddItem(int foodid, int qty)&lt;br&gt;+ CalcTotal() : double" style="text;strokeColor=none;fillColor=none;align=left;verticalAlign=top;spacingLeft=4;spacingRight=4;overflow=hidden;rotatable=0;points=[[0,0.5],[1,0.5]];portConstraint=eastwest;whiteSpace=wrap;html=1;" parent="717un5NZY9DqzgN_jYeW-10" vertex="1">
          <mxGeometry y="60" width="180" height="70" as="geometry" />
        </mxCell>
        <mxCell id="717un5NZY9DqzgN_jYeW-16" value="&lt;i&gt;FoodList&lt;/i&gt;" style="swimlane;fontStyle=1;align=center;verticalAlign=top;childLayout=stackLayout;horizontal=1;startSize=26;horizontalStack=0;resizeParent=1;resizeParentMax=0;resizeLast=0;collapsible=1;marginBottom=0;whiteSpace=wrap;html=1;" parent="WIyWlLk6GJQsqaUBKTNV-1" vertex="1">
          <mxGeometry x="-589.13" y="740" width="238.25" height="320" as="geometry" />
        </mxCell>
        <mxCell id="717un5NZY9DqzgN_jYeW-17" value="+ foodArr : Food[]&lt;br&gt;" style="text;strokeColor=none;fillColor=none;align=left;verticalAlign=top;spacingLeft=4;spacingRight=4;overflow=hidden;rotatable=0;points=[[0,0.5],[1,0.5]];portConstraint=eastwest;whiteSpace=wrap;html=1;" parent="717un5NZY9DqzgN_jYeW-16" vertex="1">
          <mxGeometry y="26" width="238.25" height="26" as="geometry" />
        </mxCell>
        <mxCell id="NnawjAGhsoZth6e_I13s-4" value="+ size : int&lt;br&gt;- categorylist : string[]&lt;br&gt;- filters : bool[]" style="text;strokeColor=none;fillColor=none;align=left;verticalAlign=top;spacingLeft=4;spacingRight=4;overflow=hidden;rotatable=0;points=[[0,0.5],[1,0.5]];portConstraint=eastwest;whiteSpace=wrap;html=1;" parent="717un5NZY9DqzgN_jYeW-16" vertex="1">
          <mxGeometry y="52" width="238.25" height="68" as="geometry" />
        </mxCell>
        <mxCell id="717un5NZY9DqzgN_jYeW-18" value="" style="line;strokeWidth=1;fillColor=none;align=left;verticalAlign=middle;spacingTop=-1;spacingLeft=3;spacingRight=3;rotatable=0;labelPosition=right;points=[];portConstraint=eastwest;strokeColor=inherit;" parent="717un5NZY9DqzgN_jYeW-16" vertex="1">
          <mxGeometry y="120" width="238.25" height="8" as="geometry" />
        </mxCell>
        <mxCell id="717un5NZY9DqzgN_jYeW-19" value="+&amp;nbsp;&amp;nbsp;Add(string, double, int)" style="text;strokeColor=none;fillColor=none;align=left;verticalAlign=top;spacingLeft=4;spacingRight=4;overflow=hidden;rotatable=0;points=[[0,0.5],[1,0.5]];portConstraint=eastwest;whiteSpace=wrap;html=1;" parent="717un5NZY9DqzgN_jYeW-16" vertex="1">
          <mxGeometry y="128" width="238.25" height="26" as="geometry" />
        </mxCell>
        <mxCell id="NnawjAGhsoZth6e_I13s-13" value="+ PrintAll()&lt;br style=&quot;border-color: var(--border-color);&quot;&gt;+ InitList()&lt;br&gt;+ PrintByCata()&lt;br&gt;+ ResetFilter()&lt;br&gt;+&amp;nbsp;GetFilters()&lt;br&gt;+&amp;nbsp;ShowCata()&lt;br&gt;+&lt;span style=&quot;&quot;&gt;&amp;nbsp;&lt;/span&gt;&lt;span style=&quot;background-color: initial;&quot;&gt;GetFoodItem(int) : Food&lt;/span&gt;&lt;span style=&quot;background-color: initial;&quot;&gt;&lt;span style=&quot;&quot;&gt;&lt;br&gt;&lt;/span&gt;&lt;/span&gt;&lt;div&gt;&lt;span style=&quot;&quot;&gt;&lt;span style=&quot;&quot;&gt;&lt;span style=&quot;&quot;&gt;+&lt;/span&gt;&lt;/span&gt;&amp;nbsp;InsertionSort();&lt;/span&gt;&lt;/div&gt;&lt;div&gt;&lt;span style=&quot;&quot;&gt;&lt;span style=&quot;&quot;&gt;&lt;span style=&quot;&quot;&gt;+ &lt;/span&gt;&lt;/span&gt;InsertionSortReverse();&lt;/span&gt;&lt;/div&gt;&lt;div&gt;&lt;span style=&quot;&quot;&gt;+ ReturnCatNum(string) : int&lt;br&gt;&lt;/span&gt;&lt;/div&gt;&lt;span style=&quot;&quot;&gt;&lt;/span&gt;" style="text;strokeColor=none;fillColor=none;align=left;verticalAlign=top;spacingLeft=4;spacingRight=4;overflow=hidden;rotatable=0;points=[[0,0.5],[1,0.5]];portConstraint=eastwest;whiteSpace=wrap;html=1;" parent="717un5NZY9DqzgN_jYeW-16" vertex="1">
          <mxGeometry y="154" width="238.25" height="166" as="geometry" />
        </mxCell>
        <mxCell id="NnawjAGhsoZth6e_I13s-6" style="edgeStyle=orthogonalEdgeStyle;rounded=0;orthogonalLoop=1;jettySize=auto;html=1;" parent="WIyWlLk6GJQsqaUBKTNV-1" source="717un5NZY9DqzgN_jYeW-20" target="717un5NZY9DqzgN_jYeW-16" edge="1">
          <mxGeometry relative="1" as="geometry" />
        </mxCell>
        <mxCell id="NnawjAGhsoZth6e_I13s-8" style="edgeStyle=orthogonalEdgeStyle;rounded=0;orthogonalLoop=1;jettySize=auto;html=1;" parent="WIyWlLk6GJQsqaUBKTNV-1" source="717un5NZY9DqzgN_jYeW-20" target="717un5NZY9DqzgN_jYeW-24" edge="1">
          <mxGeometry relative="1" as="geometry" />
        </mxCell>
        <mxCell id="717un5NZY9DqzgN_jYeW-20" value="Food" style="swimlane;fontStyle=1;align=center;verticalAlign=top;childLayout=stackLayout;horizontal=1;startSize=26;horizontalStack=0;resizeParent=1;resizeParentMax=0;resizeLast=0;collapsible=1;marginBottom=0;whiteSpace=wrap;html=1;" parent="WIyWlLk6GJQsqaUBKTNV-1" vertex="1">
          <mxGeometry x="-550" y="490" width="160" height="130" as="geometry" />
        </mxCell>
        <mxCell id="717un5NZY9DqzgN_jYeW-21" value="+ Name : string" style="text;strokeColor=none;fillColor=none;align=left;verticalAlign=top;spacingLeft=4;spacingRight=4;overflow=hidden;rotatable=0;points=[[0,0.5],[1,0.5]];portConstraint=eastwest;whiteSpace=wrap;html=1;" parent="717un5NZY9DqzgN_jYeW-20" vertex="1">
          <mxGeometry y="26" width="160" height="26" as="geometry" />
        </mxCell>
        <mxCell id="NnawjAGhsoZth6e_I13s-1" value="+ foodid : int" style="text;strokeColor=none;fillColor=none;align=left;verticalAlign=top;spacingLeft=4;spacingRight=4;overflow=hidden;rotatable=0;points=[[0,0.5],[1,0.5]];portConstraint=eastwest;whiteSpace=wrap;html=1;" parent="717un5NZY9DqzgN_jYeW-20" vertex="1">
          <mxGeometry y="52" width="160" height="26" as="geometry" />
        </mxCell>
        <mxCell id="NnawjAGhsoZth6e_I13s-2" value="+ cost : double" style="text;strokeColor=none;fillColor=none;align=left;verticalAlign=top;spacingLeft=4;spacingRight=4;overflow=hidden;rotatable=0;points=[[0,0.5],[1,0.5]];portConstraint=eastwest;whiteSpace=wrap;html=1;" parent="717un5NZY9DqzgN_jYeW-20" vertex="1">
          <mxGeometry y="78" width="160" height="26" as="geometry" />
        </mxCell>
        <mxCell id="NnawjAGhsoZth6e_I13s-3" value="+ cataid : int" style="text;strokeColor=none;fillColor=none;align=left;verticalAlign=top;spacingLeft=4;spacingRight=4;overflow=hidden;rotatable=0;points=[[0,0.5],[1,0.5]];portConstraint=eastwest;whiteSpace=wrap;html=1;" parent="717un5NZY9DqzgN_jYeW-20" vertex="1">
          <mxGeometry y="104" width="160" height="26" as="geometry" />
        </mxCell>
        <mxCell id="717un5NZY9DqzgN_jYeW-24" value="OrderItem" style="swimlane;fontStyle=1;align=center;verticalAlign=top;childLayout=stackLayout;horizontal=1;startSize=26;horizontalStack=0;resizeParent=1;resizeParentMax=0;resizeLast=0;collapsible=1;marginBottom=0;whiteSpace=wrap;html=1;" parent="WIyWlLk6GJQsqaUBKTNV-1" vertex="1">
          <mxGeometry x="-550" y="240" width="160" height="110" as="geometry" />
        </mxCell>
        <mxCell id="717un5NZY9DqzgN_jYeW-25" value="+ foodID : int" style="text;strokeColor=none;fillColor=none;align=left;verticalAlign=top;spacingLeft=4;spacingRight=4;overflow=hidden;rotatable=0;points=[[0,0.5],[1,0.5]];portConstraint=eastwest;whiteSpace=wrap;html=1;" parent="717un5NZY9DqzgN_jYeW-24" vertex="1">
          <mxGeometry y="26" width="160" height="24" as="geometry" />
        </mxCell>
        <mxCell id="717un5NZY9DqzgN_jYeW-29" value="+ qty : int" style="text;strokeColor=none;fillColor=none;align=left;verticalAlign=top;spacingLeft=4;spacingRight=4;overflow=hidden;rotatable=0;points=[[0,0.5],[1,0.5]];portConstraint=eastwest;whiteSpace=wrap;html=1;" parent="717un5NZY9DqzgN_jYeW-24" vertex="1">
          <mxGeometry y="50" width="160" height="30" as="geometry" />
        </mxCell>
        <mxCell id="717un5NZY9DqzgN_jYeW-30" value="+ next : OrderItem*" style="text;strokeColor=none;fillColor=none;align=left;verticalAlign=top;spacingLeft=4;spacingRight=4;overflow=hidden;rotatable=0;points=[[0,0.5],[1,0.5]];portConstraint=eastwest;whiteSpace=wrap;html=1;" parent="717un5NZY9DqzgN_jYeW-24" vertex="1">
          <mxGeometry y="80" width="160" height="30" as="geometry" />
        </mxCell>
        <mxCell id="Uw5zCoVIwiCZQKNPxRtt-2" style="edgeStyle=orthogonalEdgeStyle;rounded=0;orthogonalLoop=1;jettySize=auto;html=1;" parent="WIyWlLk6GJQsqaUBKTNV-1" source="717un5NZY9DqzgN_jYeW-29" target="717un5NZY9DqzgN_jYeW-10" edge="1">
          <mxGeometry relative="1" as="geometry" />
        </mxCell>
        <mxCell id="f6zvtB29TigLOaqgMklJ-0" style="edgeStyle=orthogonalEdgeStyle;rounded=0;orthogonalLoop=1;jettySize=auto;html=1;exitX=0.5;exitY=0;exitDx=0;exitDy=0;" parent="WIyWlLk6GJQsqaUBKTNV-1" source="F4Uh7PT9KSqVNdmCy0rb-9" target="F4Uh7PT9KSqVNdmCy0rb-8" edge="1">
          <mxGeometry relative="1" as="geometry">
            <mxPoint x="-100" y="388" as="sourcePoint" />
            <Array as="points" />
            <mxPoint x="-100" y="485" as="targetPoint" />
          </mxGeometry>
        </mxCell>
        <mxCell id="Uw5zCoVIwiCZQKNPxRtt-3" value="&lt;i&gt;OrderQueue&lt;/i&gt;" style="swimlane;fontStyle=1;align=center;verticalAlign=top;childLayout=stackLayout;horizontal=1;startSize=26;horizontalStack=0;resizeParent=1;resizeParentMax=0;resizeLast=0;collapsible=1;marginBottom=0;whiteSpace=wrap;html=1;" parent="WIyWlLk6GJQsqaUBKTNV-1" vertex="1">
          <mxGeometry x="-257.5" y="730" width="295" height="240" as="geometry" />
        </mxCell>
        <mxCell id="Uw5zCoVIwiCZQKNPxRtt-4" value="&lt;div&gt;- firstNode : Order*&lt;span style=&quot;&quot;&gt;&lt;/span&gt;&lt;/div&gt;&lt;div&gt;&lt;span style=&quot;&quot;&gt;&lt;span style=&quot;&quot;&gt;&lt;span style=&quot;white-space: pre;&quot;&gt;-&amp;nbsp;&lt;/span&gt;&lt;/span&gt;lastNode : Order*&lt;/span&gt;&lt;/div&gt;&lt;div&gt;&lt;br&gt;&lt;/div&gt;" style="text;strokeColor=none;fillColor=none;align=left;verticalAlign=top;spacingLeft=4;spacingRight=4;overflow=hidden;rotatable=0;points=[[0,0.5],[1,0.5]];portConstraint=eastwest;whiteSpace=wrap;html=1;" parent="Uw5zCoVIwiCZQKNPxRtt-3" vertex="1">
          <mxGeometry y="26" width="295" height="44" as="geometry" />
        </mxCell>
        <mxCell id="Uw5zCoVIwiCZQKNPxRtt-5" value="" style="line;strokeWidth=1;fillColor=none;align=left;verticalAlign=middle;spacingTop=-1;spacingLeft=3;spacingRight=3;rotatable=0;labelPosition=right;points=[];portConstraint=eastwest;strokeColor=inherit;" parent="Uw5zCoVIwiCZQKNPxRtt-3" vertex="1">
          <mxGeometry y="70" width="295" height="8" as="geometry" />
        </mxCell>
        <mxCell id="Uw5zCoVIwiCZQKNPxRtt-6" value="+&amp;nbsp;OrderQueue()&lt;br&gt;+&amp;nbsp;isEmpty() : bool&lt;br&gt;+&amp;nbsp;enqueue(string, OrderItems) : bool&lt;br&gt;+&amp;nbsp;dequeue() : bool&lt;br&gt;+&amp;nbsp;updateStatus( string)&lt;br&gt;+&amp;nbsp;getStatus(int) : string&lt;br&gt;+&amp;nbsp;listOrders(FoodList)&lt;br&gt;+ listOrders(string, FoodList) : bool&lt;br&gt;+&amp;nbsp;cancelOrder(string, int)" style="text;strokeColor=none;fillColor=none;align=left;verticalAlign=top;spacingLeft=4;spacingRight=4;overflow=hidden;rotatable=0;points=[[0,0.5],[1,0.5]];portConstraint=eastwest;whiteSpace=wrap;html=1;" parent="Uw5zCoVIwiCZQKNPxRtt-3" vertex="1">
          <mxGeometry y="78" width="295" height="162" as="geometry" />
        </mxCell>
        <mxCell id="f6zvtB29TigLOaqgMklJ-4" style="edgeStyle=orthogonalEdgeStyle;rounded=0;orthogonalLoop=1;jettySize=auto;html=1;exitX=0.5;exitY=0;exitDx=0;exitDy=0;entryX=1;entryY=0.5;entryDx=0;entryDy=0;" parent="WIyWlLk6GJQsqaUBKTNV-1" source="F4Uh7PT9KSqVNdmCy0rb-15" target="F4Uh7PT9KSqVNdmCy0rb-8" edge="1">
          <mxGeometry relative="1" as="geometry">
            <mxPoint x="370" y="474.47" as="sourcePoint" />
            <Array as="points" />
            <mxPoint x="440" y="375.47" as="targetPoint" />
          </mxGeometry>
        </mxCell>
        <mxCell id="Uw5zCoVIwiCZQKNPxRtt-19" style="edgeStyle=orthogonalEdgeStyle;rounded=0;orthogonalLoop=1;jettySize=auto;html=1;" parent="WIyWlLk6GJQsqaUBKTNV-1" source="Uw5zCoVIwiCZQKNPxRtt-15" target="Uw5zCoVIwiCZQKNPxRtt-3" edge="1">
          <mxGeometry relative="1" as="geometry" />
        </mxCell>
        <mxCell id="Uw5zCoVIwiCZQKNPxRtt-15" value="Order" style="swimlane;fontStyle=0;childLayout=stackLayout;horizontal=1;startSize=26;fillColor=none;horizontalStack=0;resizeParent=1;resizeParentMax=0;resizeLast=0;collapsible=1;marginBottom=0;whiteSpace=wrap;html=1;" parent="WIyWlLk6GJQsqaUBKTNV-1" vertex="1">
          <mxGeometry x="-205" y="490" width="190" height="142" as="geometry">
            <mxRectangle x="-220" y="450" width="70" height="30" as="alternateBounds" />
          </mxGeometry>
        </mxCell>
        <mxCell id="Uw5zCoVIwiCZQKNPxRtt-16" value="+ user ::string" style="text;strokeColor=none;fillColor=none;align=left;verticalAlign=top;spacingLeft=4;spacingRight=4;overflow=hidden;rotatable=0;points=[[0,0.5],[1,0.5]];portConstraint=eastwest;whiteSpace=wrap;html=1;" parent="Uw5zCoVIwiCZQKNPxRtt-15" vertex="1">
          <mxGeometry y="26" width="190" height="26" as="geometry" />
        </mxCell>
        <mxCell id="Uw5zCoVIwiCZQKNPxRtt-17" value="+ orderdetail : OrderDetailList" style="text;strokeColor=none;fillColor=none;align=left;verticalAlign=top;spacingLeft=4;spacingRight=4;overflow=hidden;rotatable=0;points=[[0,0.5],[1,0.5]];portConstraint=eastwest;whiteSpace=wrap;html=1;" parent="Uw5zCoVIwiCZQKNPxRtt-15" vertex="1">
          <mxGeometry y="52" width="190" height="26" as="geometry" />
        </mxCell>
        <mxCell id="Uw5zCoVIwiCZQKNPxRtt-18" value="+ status : string" style="text;strokeColor=none;fillColor=none;align=left;verticalAlign=top;spacingLeft=4;spacingRight=4;overflow=hidden;rotatable=0;points=[[0,0.5],[1,0.5]];portConstraint=eastwest;whiteSpace=wrap;html=1;" parent="Uw5zCoVIwiCZQKNPxRtt-15" vertex="1">
          <mxGeometry y="78" width="190" height="32" as="geometry" />
        </mxCell>
        <mxCell id="Uw5zCoVIwiCZQKNPxRtt-32" value="+ next : Order*" style="text;strokeColor=none;fillColor=none;align=left;verticalAlign=top;spacingLeft=4;spacingRight=4;overflow=hidden;rotatable=0;points=[[0,0.5],[1,0.5]];portConstraint=eastwest;whiteSpace=wrap;html=1;" parent="Uw5zCoVIwiCZQKNPxRtt-15" vertex="1">
          <mxGeometry y="110" width="190" height="32" as="geometry" />
        </mxCell>
      </root>
    </mxGraphModel>
  </diagram>
</mxfile>
